<svg xmlns="http://www.w3.org/2000/svg" viewBox="0 0 430 128" width="430" height="128" role="img" aria-label="ExamSystem - Online Examination Platform">
  <defs>
    <linearGradient id="bg" x1="0" y1="0" x2="1" y2="1">
      <stop offset="0" stop-color="#3b82f6"/>
      <stop offset="1" stop-color="#1e3a8a"/>
    </linearGradient>
  </defs>
  <g>
    <rect width="128" height="128" rx="28" fill="url(#bg)"/>
    <path d="M40 24H80L94 38V98a6 6 0 0 1-6 6H40a6 6 0 0 1-6-6V30a6 6 0 0 1 6-6Z" fill="#ffffff"/>
    <path d="M80 24V38H94Z" fill="#bfdbfe"/>
    <rect x="44" y="48" width="36" height="5" rx="2.5" fill="#93c5fd"/>
    <rect x="44" y="60" width="28" height="5" rx="2.5" fill="#93c5fd"/>
    <rect x="44" y="72" width="32" height="5" rx="2.5" fill="#93c5fd"/>
    <circle cx="88" cy="92" r="22.5" fill="#ffffff"/>
    <circle cx="88" cy="92" r="18" fill="#22c55e"/>
    <path d="M78 92L85 99L98 84" fill="none" stroke="#ffffff" stroke-width="6" stroke-linecap="round" stroke-linejoin="round"/>
  </g>
  <text x="148" y="70" font-family="'Segoe UI', Arial, Helvetica, sans-serif" font-size="50" font-weight="700" fill="#1e3a8a">Exam<tspan fill="#2563eb">System</tspan></text>
  <text x="150" y="100" font-family="'Segoe UI', Arial, Helvetica, sans-serif" font-size="18" fill="#64748b" letter-spacing="1.5">ONLINE EXAMINATION PLATFORM</text>
</svg>
